<svg width="40" height="40" viewBox="0 0 40 40" fill="none" xmlns="http://www.w3.org/2000/svg">
<path d="M28.54 19.92C28.5 17.9 27.8 16.06 26.6 14.6C26.42 14.84 24.98 16.7 21.86 17.96C22.0597 18.3595 22.2395 18.7789 22.4193 19.1983L22.42 19.2C22.4501 19.2702 22.4801 19.3454 22.5102 19.4205C22.5401 19.4954 22.5701 19.5702 22.6 19.64C25.44 19.3 28.26 19.86 28.54 19.92Z" fill="#6F6595"/>
<path d="M25.66 13.62C24.16 12.3 22.16 11.48 20 11.48C19.3 11.48 18.64 11.56 18 11.7C18.0267 11.7388 18.0731 11.8039 18.1366 11.8928C18.5963 12.5368 19.9499 14.4331 21.18 16.7C24.22 15.56 25.5 13.84 25.66 13.62Z" fill="#6F6595"/>
<path d="M19.52 17.22C18.1 14.7 16.58 12.58 16.36 12.28C13.98 13.4 12.2 15.6 11.62 18.26H11.6407C12.1133 18.2604 15.5843 18.263 19.52 17.22Z" fill="#6F6595"/>
<path d="M11.46 19.76V20.02C11.46 22.2 12.28 24.2 13.66 25.72L13.6739 25.6977C13.9504 25.2523 16.2843 21.4928 20.6 20.1C20.6531 20.0823 20.7063 20.0685 20.7576 20.0552C20.8223 20.0384 20.8843 20.0223 20.94 20C20.72 19.5 20.48 19.02 20.24 18.54C15.98 19.82 11.82 19.78 11.46 19.76Z" fill="#6F6595"/>
<path d="M14.76 26.74C16.2 27.86 18.02 28.54 20 28.54C21.18 28.54 22.32 28.3 23.34 27.86C23.22 27.1 22.72 24.5 21.52 21.38C21.5 21.38 21.48 21.38 21.46 21.4C16.64 23.08 14.92 26.42 14.76 26.74Z" fill="#6F6595"/>
<path d="M23.1 21C24.22 24.06 24.68 26.56 24.76 27.08C26.68 25.8 28.04 23.74 28.42 21.36C28.4063 21.3564 28.3884 21.3514 28.3664 21.3453C27.9058 21.2185 25.6577 20.5992 23.1 21Z" fill="#6F6595"/>
<path fill-rule="evenodd" clip-rule="evenodd" d="M20 40C8.95432 40 0 31.0457 0 20C0 8.9543 8.95432 0 20 0C31.0457 0 40 8.9543 40 20C40 31.0457 31.0457 40 20 40ZM10 20C10 14.48 14.48 10 20 10C25.5 10 30 14.48 30 20C30 25.52 25.5 30 20 30C14.48 30 10 25.52 10 20Z" fill="#6F6595"/>
</svg>
